# xmcd
#
# Track frame offsets:
#	150
#	11450
#	23666
#	35232
#	45874
#	57654
#	68125
#	80994
#	95026
#	105111
#	115419
#	127083
#	138842
#	151681
#	165275
#	179382
#	191479
#	201900
#	213327
#	225562
#	236100
#	248641
#	261730
#	272352
#	284812
#	294860
#
# Disc length: 4122 seconds
#
# Revision: 2
# Processed by: cddbd v1.5.2PL0 Copyright (c) Steve Scherf et al.
# Submitted via: audiograbber 1.83.01
#
DISCID=7510181a
DTITLE=Various Artist - Country and Western Hit Parade 1952
DYEAR=2009
DGENRE=Country
TTITLE0=Tex Ritter - High Noon (Do Not Forsake Me)
TTITLE1=Hank Thompson - Wild Side Of Life
TTITLE2=Kitty Wells - It Wasn't God Who Made Honky Tonk Angels
TTITLE3=Johnnie and Jack - Ashes Of Love
TTITLE4=Eddy Arnold - Easy On The Eyes
TTITLE5=Lefty Frizzell - Give Me More, More, More (Of Your Kisses)
TTITLE6=Jimmie Dean - Bumming Around
TTITLE7=Jimmy Swan - I Had A Dream
TTITLE8=Lattie Moore - Juke Joint Johnny
TTITLE9=Bill Haley and The Saddlemen - Rock The Joint
TTITLE10=Doye O'Dell - Diesel Smoke
TTITLE11=Carl Smith - Are You Teasing Me
TTITLE12=Hank Williams - Jambalaya (On The Bayou)
TTITLE13=Webb Pierce - Wondering
TTITLE14=Jim Eanes - I Cried Again
TTITLE15=Jimmy Dickens - They Locked God Outside The Iron Curtain
TTITLE16=Hank Snow - The Gold Rush Is Over
TTITLE17=Don Reno, Red Smiley and The Tennessee Cutups - I'm Using My Bible For A
TTITLE17=Roadmap
TTITLE18=Bill Monroe - Raw Hide
TTITLE19=Slim Whitman - Indian Love Call
TTITLE20=Slim Willet and the Brush Cutters - Don't Let The Stars (Get In Your E
TTITLE20=yes)
TTITLE21=George Morgan - Almost
TTITLE22=Big Bill Lister - There's A Tear In My Beer
TTITLE23=Webb Pierce - Back Street Affair
TTITLE24=Hank Williams - Honky Tonk Blues
TTITLE25=Red Foley - Midnight
EXTD=
EXTT0=
EXTT1=
EXTT2=
EXTT3=
EXTT4=
EXTT5=
EXTT6=
EXTT7=
EXTT8=
EXTT9=
EXTT10=
EXTT11=
EXTT12=
EXTT13=
EXTT14=
EXTT15=
EXTT16=
EXTT17=
EXTT18=
EXTT19=
EXTT20=
EXTT21=
EXTT22=
EXTT23=
EXTT24=
EXTT25=
PLAYORDER=
